<svg xmlns="http://www.w3.org/2000/svg" width="256" height="256" viewBox="0 0 100 100"><rect width="100" height="100" rx="50" fill="#000000"></rect><path fill="#fff" d="M59.58 72.83L51.05 72.83Q50.35 71.42 49.91 67.82L49.91 67.82Q44.24 73.71 36.38 73.71L36.38 73.71Q29.35 73.71 24.84 69.73Q20.34 65.75 20.34 59.65L20.34 59.65Q20.34 52.22 25.98 48.11Q31.63 44.00 41.87 44.00L41.87 44.00L49.78 44.00L49.78 40.27Q49.78 36.00 47.23 33.48Q44.68 30.95 39.72 30.95L39.72 30.95Q35.37 30.95 32.42 33.15Q29.48 35.34 29.48 38.46L29.48 38.46L21.30 38.46Q21.30 34.90 23.83 31.59Q26.36 28.27 30.69 26.34Q35.01 24.40 40.20 24.40L40.20 24.40Q48.42 24.40 53.08 28.51Q57.73 32.62 57.91 39.83L57.91 39.83L57.91 61.71Q57.91 68.26 59.58 72.13L59.58 72.13L59.58 72.83ZM37.56 66.63L37.56 66.63Q41.39 66.63 44.81 64.66Q48.24 62.68 49.78 59.51L49.78 59.51L49.78 49.76L43.41 49.76Q28.47 49.76 28.47 58.50L28.47 58.50Q28.47 62.33 31.02 64.48Q33.56 66.63 37.56 66.63ZM70.92 25.28L79.05 25.28L79.05 78.32Q79.05 92.03 66.61 92.03L66.61 92.03Q63.93 92.03 61.65 91.24L61.65 91.24L61.65 84.74Q63.05 85.09 65.34 85.09L65.34 85.09Q68.06 85.09 69.49 83.62Q70.92 82.15 70.92 78.50L70.92 78.50L70.92 25.28ZM70.08 12.67L70.08 12.67Q70.08 10.73 71.29 9.35Q72.50 7.97 74.83 7.97L74.83 7.97Q77.20 7.97 78.43 9.33Q79.66 10.69 79.66 12.67Q79.66 14.65 78.43 15.96Q77.20 17.28 74.83 17.28Q72.46 17.28 71.27 15.96Q70.08 14.65 70.08 12.67Z"></path></svg>